<?xml version="1.0" encoding="UTF-8" standalone="no"?>
<!-- Created with Sodipodi ("http://www.sodipodi.com/") -->

<svg
   xmlns:dc="http://purl.org/dc/elements/1.1/"
   xmlns:cc="http://creativecommons.org/ns#"
   xmlns:rdf="http://www.w3.org/1999/02/22-rdf-syntax-ns#"
   xmlns:svg="http://www.w3.org/2000/svg"
   xmlns="http://www.w3.org/2000/svg"
   xmlns:xlink="http://www.w3.org/1999/xlink"
   xmlns:sodipodi="http://sodipodi.sourceforge.net/DTD/sodipodi-0.dtd"
   xmlns:inkscape="http://www.inkscape.org/namespaces/inkscape"
   inkscape:version="0.48.0 r9654"
   sodipodi:docname="WifiKeyRecovery.svg"
   sodipodi:version="0.31.1win"
   version="1.0"
   viewBox="0 0 512 512"
   id="svg3016"
   width="100%"
   height="100%"
   style="display:inline"
   inkscape:export-filename="S:\icons\mine\Android\WifiKeyRecovery_512.png"
   inkscape:export-xdpi="90"
   inkscape:export-ydpi="90">
  <sodipodi:namedview
     pagecolor="#ff00ff"
     bordercolor="#a4a4a4"
     borderopacity="0"
     objecttolerance="10"
     gridtolerance="10"
     guidetolerance="10"
     inkscape:pageopacity="0"
     inkscape:pageshadow="2"
     inkscape:window-width="1280"
     inkscape:window-height="952"
     id="namedview3045"
     showgrid="false"
     showguides="true"
     inkscape:zoom="0.16327738"
     inkscape:cx="1340.7623"
     inkscape:cy="266.64967"
     inkscape:window-x="-4"
     inkscape:window-y="-4"
     inkscape:window-maximized="1"
     inkscape:current-layer="layer2"
     fit-margin-top="0"
     fit-margin-left="0"
     fit-margin-right="0"
     fit-margin-bottom="0"
     inkscape:guide-bbox="true"
     borderlayer="true">
    <inkscape:grid
       type="xygrid"
       id="grid3057"
       empspacing="5"
       visible="true"
       enabled="true"
       snapvisiblegridlinesonly="true" />
  </sodipodi:namedview>
  <metadata
     id="metadata3018">
    <rdf:RDF>
      <cc:Work
         rdf:about="">
        <dc:title></dc:title>
        <dc:description />
        <dc:subject>
          <rdf:Bag>
            <rdf:li>computer</rdf:li>
            <rdf:li>keyboard</rdf:li>
            <rdf:li>key</rdf:li>
          </rdf:Bag>
        </dc:subject>
        <dc:publisher>
          <cc:Agent
             rdf:about="http://www.openclipart.org">
            <dc:title>Open Clip Art Library</dc:title>
          </cc:Agent>
        </dc:publisher>
        <dc:creator>
          <cc:Agent>
            <dc:title>Yemu</dc:title>
          </cc:Agent>
        </dc:creator>
        <dc:rights>
          <cc:Agent>
            <dc:title>Yemu</dc:title>
          </cc:Agent>
        </dc:rights>
        <dc:date />
        <dc:format>image/svg+xml</dc:format>
        <dc:type
           rdf:resource="http://purl.org/dc/dcmitype/StillImage" />
        <cc:license
           rdf:resource="http://web.resource.org/cc/PublicDomain" />
        <dc:language>en</dc:language>
      </cc:Work>
      <cc:License
         rdf:about="http://web.resource.org/cc/PublicDomain">
        <cc:permits
           rdf:resource="http://web.resource.org/cc/Reproduction" />
        <cc:permits
           rdf:resource="http://web.resource.org/cc/Distribution" />
        <cc:permits
           rdf:resource="http://web.resource.org/cc/DerivativeWorks" />
      </cc:License>
    </rdf:RDF>
  </metadata>
  <defs
     id="defs561">
    <linearGradient
       id="linearGradient3883">
      <stop
         style="stop-color:#00ff00;stop-opacity:1;"
         offset="0"
         id="stop3885" />
      <stop
         style="stop-color:#000000;stop-opacity:0;"
         offset="1"
         id="stop3887" />
    </linearGradient>
    <linearGradient
       id="linearGradient607">
      <stop
         id="stop608"
         offset="0.000000"
         style="stop-color: rgb(207, 207, 207); stop-opacity: 1;" />
      <stop
         id="stop609"
         offset="1.000000"
         style="stop-color: rgb(239, 239, 239); stop-opacity: 1;" />
    </linearGradient>
    <linearGradient
       id="linearGradient565">
      <stop
         id="stop566"
         offset="0.000000"
         style="stop-color: rgb(157, 157, 159); stop-opacity: 1;" />
      <stop
         id="stop567"
         offset="1.000000"
         style="stop-color: rgb(229, 229, 229); stop-opacity: 1;" />
    </linearGradient>
    <radialGradient
       cx="0.47153401"
       cy="0.49218801"
       fx="0.47153401"
       fy="0.49218801"
       id="radialGradient568"
       r="1.0161459"
       spreadMethod="repeat"
       xlink:href="#linearGradient565" />
    <linearGradient
       gradientUnits="objectBoundingBox"
       id="linearGradient569"
       spreadMethod="pad"
       x1="-0.085270077"
       x2="0.72092992"
       xlink:href="#linearGradient565"
       y1="0.99253702"
       y2="-0.037312981" />
    <linearGradient
       gradientUnits="objectBoundingBox"
       id="linearGradient580"
       spreadMethod="pad"
       x1="-0.0077529401"
       x2="-0.046511941"
       xlink:href="#linearGradient565"
       y1="0.99253708"
       y2="2e-008" />
    <linearGradient
       id="linearGradient576"
       xlink:href="#linearGradient565" />
    <linearGradient
       gradientUnits="objectBoundingBox"
       id="linearGradient610"
       spreadMethod="pad"
       x1="0.11764701"
       x2="0.78280514"
       xlink:href="#linearGradient607"
       y1="0.86885244"
       y2="0.12295082" />
    <linearGradient
       gradientUnits="objectBoundingBox"
       id="linearGradient611"
       spreadMethod="pad"
       x1="0.10837435"
       x2="0.76847297"
       xlink:href="#linearGradient565"
       y1="0.9453125"
       y2="0.28125" />
    <linearGradient
       gradientUnits="userSpaceOnUse"
       id="linearGradient613"
       spreadMethod="pad"
       x1="88.575256"
       x2="173.60237"
       xlink:href="#linearGradient607"
       y1="228.3044"
       y2="124.08444"
       gradientTransform="matrix(1.3093327,0,0,0.76374782,-52.744064,-66.891662)" />
    <linearGradient
       gradientUnits="userSpaceOnUse"
       id="linearGradient615"
       spreadMethod="pad"
       x1="60.856331"
       x2="197.69646"
       xlink:href="#linearGradient565"
       y1="230.04285"
       y2="98.27066"
       gradientTransform="matrix(1.2617402,0,0,0.79255617,-52.744064,-66.891663)" />
    <linearGradient
       id="linearGradient620"
       xlink:href="#linearGradient607"
       gradientTransform="matrix(1.3093327,0,0,0.76374782,-52.744064,-66.891662)"
       x1="54.824169"
       y1="106.15413"
       x2="198.26669"
       y2="106.15413"
       gradientUnits="userSpaceOnUse" />
    <linearGradient
       gradientUnits="userSpaceOnUse"
       id="linearGradient615-1"
       spreadMethod="pad"
       x1="60.856331"
       x2="197.69646"
       xlink:href="#linearGradient565-7"
       y1="230.04285"
       y2="98.27066"
       gradientTransform="matrix(1.2617402,0,0,0.79255617,-52.744064,-66.891663)" />
    <linearGradient
       id="linearGradient565-7">
      <stop
         id="stop566-4"
         offset="0.000000"
         style="stop-color: rgb(157, 157, 159); stop-opacity: 1;" />
      <stop
         id="stop567-0"
         offset="1.000000"
         style="stop-color: rgb(229, 229, 229); stop-opacity: 1;" />
    </linearGradient>
    <linearGradient
       gradientUnits="userSpaceOnUse"
       id="linearGradient613-9"
       spreadMethod="pad"
       x1="88.575256"
       x2="173.60237"
       xlink:href="#linearGradient607-4"
       y1="228.3044"
       y2="124.08444"
       gradientTransform="matrix(1.3093327,0,0,0.76374782,-52.800578,-66.366865)" />
    <linearGradient
       id="linearGradient607-4">
      <stop
         id="stop608-8"
         offset="0.000000"
         style="stop-color: rgb(207, 207, 207); stop-opacity: 1;" />
      <stop
         id="stop609-8"
         offset="1.000000"
         style="stop-color: rgb(239, 239, 239); stop-opacity: 1;" />
    </linearGradient>
    <linearGradient
       id="linearGradient620-2"
       xlink:href="#linearGradient607-4"
       gradientTransform="matrix(1.3093327,0,0,0.76374782,-52.800578,-66.366865)"
       x1="54.824169"
       y1="106.15413"
       x2="198.26669"
       y2="106.15413"
       gradientUnits="userSpaceOnUse" />
    <linearGradient
       id="linearGradient3193">
      <stop
         id="stop3195"
         offset="0.000000"
         style="stop-color: rgb(207, 207, 207); stop-opacity: 1;" />
      <stop
         id="stop3197"
         offset="1.000000"
         style="stop-color: rgb(239, 239, 239); stop-opacity: 1;" />
    </linearGradient>
    <linearGradient
       y2="98.27066"
       x2="197.69646"
       y1="230.04285"
       x1="60.856331"
       spreadMethod="pad"
       gradientTransform="matrix(1.2617402,0,0,0.79255617,-52.800578,-66.366866)"
       gradientUnits="userSpaceOnUse"
       id="linearGradient3204"
       xlink:href="#linearGradient565-7"
       inkscape:collect="always" />
    <linearGradient
       gradientUnits="userSpaceOnUse"
       id="linearGradient613-9-6"
       spreadMethod="pad"
       x1="88.575256"
       x2="173.60237"
       xlink:href="#linearGradient607-4-8"
       y1="228.3044"
       y2="124.08444"
       gradientTransform="matrix(1.3093327,0,0,0.76374782,-53.681787,-65.494462)" />
    <linearGradient
       id="linearGradient607-4-8">
      <stop
         id="stop608-8-5"
         offset="0.000000"
         style="stop-color: rgb(207, 207, 207); stop-opacity: 1;" />
      <stop
         id="stop609-8-7"
         offset="1.000000"
         style="stop-color: rgb(239, 239, 239); stop-opacity: 1;" />
    </linearGradient>
    <linearGradient
       id="linearGradient620-2-6"
       xlink:href="#linearGradient607-4-8"
       gradientTransform="matrix(1.3093327,0,0,0.76374782,-53.681787,-65.494462)"
       x1="54.824169"
       y1="106.15413"
       x2="198.26669"
       y2="106.15413"
       gradientUnits="userSpaceOnUse" />
    <linearGradient
       id="linearGradient3379">
      <stop
         id="stop3381"
         offset="0.000000"
         style="stop-color: rgb(207, 207, 207); stop-opacity: 1;" />
      <stop
         id="stop3383"
         offset="1.000000"
         style="stop-color: rgb(239, 239, 239); stop-opacity: 1;" />
    </linearGradient>
    <linearGradient
       y2="98.27066"
       x2="197.69646"
       y1="230.04285"
       x1="60.856331"
       spreadMethod="pad"
       gradientTransform="matrix(1.2617402,0,0,0.79255617,-52.800578,-66.366866)"
       gradientUnits="userSpaceOnUse"
       id="linearGradient3204-1"
       xlink:href="#linearGradient565-7-8"
       inkscape:collect="always" />
    <linearGradient
       id="linearGradient565-7-8">
      <stop
         id="stop566-4-9"
         offset="0.000000"
         style="stop-color: rgb(157, 157, 159); stop-opacity: 1;" />
      <stop
         id="stop567-0-2"
         offset="1.000000"
         style="stop-color: rgb(229, 229, 229); stop-opacity: 1;" />
    </linearGradient>
    <linearGradient
       inkscape:collect="always"
       xlink:href="#linearGradient565-7-8"
       id="linearGradient5247"
       x1="4.0531158e-006"
       y1="-115.28506"
       x2="512"
       y2="-115.28506"
       gradientUnits="userSpaceOnUse" />
    <radialGradient
       gradientUnits="userSpaceOnUse"
       cx="41.875938"
       cy="37.865574"
       fx="33.845611"
       fy="37.342124"
       id="radialGradient1502"
       r="12.562782"
       xlink:href="#linearGradient1918" />
    <linearGradient
       id="linearGradient1918">
      <stop
         id="stop1919"
         offset="0.0000000"
         style="stop-color:#000000;stop-opacity:0.31638417;" />
      <stop
         id="stop1920"
         offset="0.50000000"
         style="stop-color:#000000;stop-opacity:0.079096042;" />
      <stop
         id="stop1921"
         offset="1.0000000"
         style="stop-color:#000000;stop-opacity:0.0000000;" />
    </linearGradient>
    <linearGradient
       gradientUnits="userSpaceOnUse"
       gradientTransform="scale(1.0067185,0.99332633)"
       id="linearGradient2121"
       x1="13.739685"
       x2="15.501424"
       xlink:href="#linearGradient1513"
       y1="3.3074582"
       y2="4.9298501" />
    <linearGradient
       id="linearGradient1513">
      <stop
         id="stop1514"
         offset="0.0000000"
         style="stop-color:#ffffff;stop-opacity:1.0000000;" />
      <stop
         id="stop1515"
         offset="1.0000000"
         style="stop-color:#ffffff;stop-opacity:0.0000000;" />
    </linearGradient>
    <linearGradient
       gradientUnits="userSpaceOnUse"
       gradientTransform="scale(1.0351768,0.96601857)"
       id="linearGradient2316"
       x1="8.268674"
       x2="10.515973"
       xlink:href="#linearGradient2317"
       y1="11.00203"
       y2="13.066299" />
    <linearGradient
       id="linearGradient2317">
      <stop
         id="stop2318"
         offset="0.0000000"
         style="stop-color:#d6d6d6;stop-opacity:1.0000000;" />
      <stop
         id="stop2322"
         offset="0.25769231"
         style="stop-color:#eaeaea;stop-opacity:1.0000000;" />
      <stop
         id="stop2320"
         offset="0.70594490"
         style="stop-color:#919191;stop-opacity:1.0000000;" />
      <stop
         id="stop2321"
         offset="0.73347497"
         style="stop-color:#d2d2d2;stop-opacity:1.0000000;" />
      <stop
         id="stop2319"
         offset="1.0000000"
         style="stop-color:#a6a6a6;stop-opacity:1.0000000;" />
    </linearGradient>
    <linearGradient
       id="linearGradient2222"
       x1="-0.10588235"
       x2="0.58431375"
       xlink:href="#linearGradient1513"
       y1="-0.10497238"
       y2="0.55248618" />
    <linearGradient
       id="linearGradient3045">
      <stop
         id="stop3047"
         offset="0.0000000"
         style="stop-color:#ffffff;stop-opacity:1.0000000;" />
      <stop
         id="stop3049"
         offset="1.0000000"
         style="stop-color:#ffffff;stop-opacity:0.0000000;" />
    </linearGradient>
  </defs>
  <g
     inkscape:groupmode="layer"
     id="layer2"
     inkscape:label="Image"
     style="display:inline"
     transform="translate(0,371.28505)">
    <rect
       height="508.39459"
       id="rect614"
       ry="53.196243"
       style="fill:url(#linearGradient5247);fill-opacity:1;fill-rule:evenodd;stroke:#acb0b0;stroke-width:2.88431968999999990pt;stroke-opacity:1"
       width="508.39459"
       x="1.8027039"
       y="-369.48236"
       clip-path="none" />
    <g
       id="g3848"
       transform="matrix(0.86318482,0,0,0.88770589,-50.140992,-296.09666)"
       style="fill:#009800;fill-opacity:1;stroke:none">
      <path
         transform="matrix(0.69695424,0,0,0.69695424,107.01816,136.7659)"
         d="m 414.28571,396.64789 c 0,38.65993 -31.34007,70 -70,70 -38.65994,0 -70,-31.34007 -70,-70 0,-38.65993 31.34006,-70 70,-70 38.65993,0 70,31.34007 70,70 z"
         sodipodi:ry="70"
         sodipodi:rx="70"
         sodipodi:cy="396.64789"
         sodipodi:cx="344.28571"
         id="path3812"
         style="fill:#009800;fill-opacity:1;stroke:none"
         sodipodi:type="arc" />
      <path
         inkscape:connector-curvature="0"
         id="path3814"
         d="m 357.125,75.21875 c -88.70625,0 -167.24803,33.72297 -215.5,85.5625 l 40,61.65625 c 35.1157,-46.92077 100.54558,-78.46875 175.5,-78.46875 69.39712,0 130.63979,27.06257 167.21875,68.3125 L 565.8125,153.75 C 517.15423,105.90176 441.76173,75.21875 357.125,75.21875 z"
         style="fill:#009800;fill-opacity:1;stroke:none" />
      <path
         inkscape:connector-curvature="0"
         id="path3822"
         d="m 350,229.5 c -50.45667,0 -96.51719,18.78113 -131.5625,49.6875 l 33.78125,52.09375 C 278.62505,309.04597 312.73394,295.625 350,295.625 c 34.98396,0 67.17684,11.81479 92.84375,31.65625 l 35.84375,-50.625 C 444.0107,247.23634 399.08938,229.5 350,229.5 z"
         style="fill:#009800;fill-opacity:1;stroke:none" />
      <path
         inkscape:connector-curvature="0"
         style="fill:#009800;fill-opacity:1;stroke:none"
         d="m 372.15625,138.25 c -116.58406,0 -221.30767,45.12743 -293.4375,116.8125 l 37.90625,58.40625 c 53.30072,-61.70409 147.01391,-102.6875 253.78125,-102.6875 105.94617,0 199.07205,40.33953 252.59375,101.25 L 664.3125,253.75 C 592.20544,182.82091 488.03965,138.25 372.15625,138.25 z"
         transform="translate(-16.162441,-216.17265)"
         id="path3824" />
    </g>
    <path
       style="display:inline;fill:#000031;fill-opacity:0.58823532"
       inkscape:connector-curvature="0"
       d="m 496.57672,44.003786 c -1.53674,-1.28078 -3.26496,-2.19051 -5.05031,-2.84844 17.97697,-32.20978 14.11525,-72.2971 -9.80099,-100.69184 1.53251,-0.91348 2.98095,-2.02152 4.20411,-3.44182 6.10094,-7.08429 5.2107,-17.68156 -1.99145,-23.68411 -7.20128,-6.00184 -17.97356,-5.12605 -24.07524,1.95909 -1.22317,1.42031 -2.09621,3.00792 -2.75946,4.64586 -28.30373,-16.19167 -63.02682,-16.06785 -90.91735,-0.62986 l -14.42184,-12.01974 -8.53167,9.90678 -10.66332,-8.88724 -6.02292,6.99369 -264.220153,-220.211476 -12.04509,13.9865 17.9953,14.99798 -15.05767,17.48462 22.59498,18.83156 -12.71983,14.76998 -22.59499,-18.83155 -36.93635,42.88967 41.07096,34.23015 8.9634,-10.40811 -22.63271,-18.86299 12.72059,-14.77085 22.6327,18.86298 14.27145,-16.5717 15.01391,12.51319 -14.27219,16.57257 22.623083,18.85494 -12.720603,14.77087 -22.62305,-18.85496 -8.96342,10.40811 41.070963,34.23017 36.93636,-42.88969 -22.60464,-18.8396 12.71984,-14.76999 22.60464,18.8396 15.05766,-17.48463 149.06727,124.238546 -6.02291,6.99369 10.66333,8.88723 -8.53167,9.90677 14.6806,12.23539 c -10.85739,29.5569902 -5.55541,63.13268 15.31155,87.90549 -1.53337,0.91275 -2.9818,2.0208 -4.20497,3.4411 -6.10168,7.08515 -5.20982,17.68228 1.99145,23.68411 7.20216,6.00256 17.97355,5.12604 24.07523,-1.9591 1.22317,-1.42031 2.09621,-3.00792 2.76034,-4.64513 33.70236,19.28299 76.44514,15.34745 105.96957,-9.94475 0.90097,1.3927 1.95068,2.72114 3.30147,3.84695 7.20215,6.00255 17.97354,5.12604 24.07523,-1.95911 6.10196,-7.08194 5.21097,-17.67834 -1.99119,-23.6809 z m -67.00754,9.77126 c 0.60385,7.38523 -4.9799,13.86895 -12.47685,14.48783 -7.51624,0.6028 -14.10614,-4.8895 -14.72709,-12.27414 l -3.6717,-43.66711 -44.38826,3.61205 c -7.50512,0.62838 -14.09591,-4.86464 -14.72621,-12.2733998 -0.61216,-7.37734 4.97158,-13.8610502 12.47684,-14.4878302 l 44.38825,-3.61205 -3.6711,-43.65031 c -0.62093,-7.38465 4.96281,-13.86836 12.46065,-14.48651 7.53231,-0.60572 14.12309,4.88731 14.72621,12.27341 l 3.67913,43.65848 44.38826,-3.61205 c 7.49695,-0.61889 14.08773,4.87414 14.71891,12.2836302 0.61129,7.3766 -4.97246,13.86032 -12.46941,14.4791998 l -44.38826,3.61205 3.68063,43.65675 z"
       id="path3-8" />
    <path
       inkscape:connector-curvature="0"
       d="m 9.927308,44.211026 c 1.53674,-1.28078 3.26495,-2.19051 5.05031,-2.84845 -17.9769703,-32.2097701 -14.1152503,-72.29709 9.80099,-100.69183 -1.53251,-0.91348 -2.98095,-2.02152 -4.20411,-3.44183 -6.10094,-7.084284 -5.2107,-17.681554 1.99145,-23.684114 7.20128,-6.00183 17.97356,-5.12605 24.07524,1.9591 1.22316,1.42031 2.0962,3.00792 2.75945,4.64586 28.30374,-16.19167 63.026832,-16.06785 90.917362,-0.62986 l 14.42183,-12.01974 8.53167,9.90678 10.66332,-8.88724 6.02292,6.99369 264.22015,-220.211472 12.04509,13.9865 -17.9953,14.99798 15.05767,17.48461 -22.59498,18.83156 12.71983,14.76998 22.59499,-18.83155 36.93635,42.88967 -41.07096,34.23015 -8.9634,-10.40811 22.63271,-18.86299 -12.72059,-14.77085 -22.6327,18.86298 -14.27145,-16.5717 -15.01392,12.51319 14.2722,16.57257 -22.62307,18.85494 12.72059,14.77086 22.62305,-18.85495 8.96342,10.40811 -41.07096,34.23016 -36.93635,-42.88968 22.60464,-18.8396 -12.71984,-14.76999 -22.60464,18.8396 -15.05767,-17.48463 -149.06727,124.238552 6.02291,6.993694 -10.66333,8.88723 8.53167,9.90677 -14.6806,12.23539 c 10.85739,29.5569899 5.55541,63.13268 -15.31155,87.9055 1.53337,0.91274 2.9818,2.02079 4.20497,3.4411 6.10168,7.08514 5.20982,17.68228 -1.99145,23.6841 -7.20216,6.00256 -17.97354,5.12604 -24.07522,-1.9591 -1.22317,-1.42031 -2.09621,-3.00792 -2.76034,-4.64512 -33.70236,19.28298 -76.445142,15.34745 -105.969572,-9.94475 -0.90097,1.3927 -1.95068,2.72114 -3.30147,3.84694 -7.20215,6.00255 -17.97354,5.12604 -24.07523,-1.9591 -6.1019603,-7.08195 -5.2109703,-17.67836 1.99119,-23.68091 z m 67.00754,9.77126 c -0.60385,7.38523 4.97989,13.86895 12.47685,14.48783 7.516242,0.6028 14.106142,-4.8895 14.727092,-12.27414 l 3.6717,-43.66711 44.38826,3.61205 c 7.50511,0.62838 14.0959,-4.86465 14.7262,-12.2734001 0.61216,-7.37734 -4.97158,-13.86105 -12.47684,-14.4878299 l -44.38824,-3.61205 3.6711,-43.65031 c 0.62093,-7.38465 -4.96281,-13.868364 -12.46065,-14.486514 -7.532312,-0.60572 -14.123092,4.88731 -14.726212,12.273404 l -3.67913,43.65849 -44.38826,-3.61205 c -7.49695,-0.61889 -14.08773,4.87414 -14.71891,12.2836299 -0.61129,7.37659998 4.97246,13.86031 12.46941,14.4792 l 44.38826,3.6120501 -3.68063,43.65675 z"
       id="path3"
       style="fill:#000032;fill-opacity:0.58823532;stroke:none;display:inline" />
  </g>
</svg>
